<svg xmlns="http://www.w3.org/2000/svg" width="29.06" height="29" viewBox="0 0 29.06 29">
<defs>
    <style>
      .cls-1 {
        fill: #edc130;
        fill-rule: evenodd;
      }
    </style>
  </defs>
  <path id="icon_td" class="cls-1" d="M1306.08,42.5a14.54,14.54,0,0,0-29.08,0v0.289h0a14.539,14.539,0,0,0,29.07,0h0.01l-0.01-.017A2.48,2.48,0,0,0,1306.08,42.5Zm-6.45,8.075a11.372,11.372,0,0,1-4.62,2.813l0.58-4.744a7.383,7.383,0,0,1-8.1,0l0.58,4.744a11.437,11.437,0,0,1-7.9-9.538l4.59,1.537a7.306,7.306,0,0,1,1.48-8L1281.49,37a11.526,11.526,0,0,1,1.95-2.583,11.472,11.472,0,0,1,16.19,0,11.264,11.264,0,0,1,1.95,2.587l-4.75.374a7.339,7.339,0,0,1,1.49,8l4.59-1.537A11.339,11.339,0,0,1,1299.63,50.575Zm-8.09-14.284a6.209,6.209,0,1,0,6.22,6.209A6.23,6.23,0,0,0,1291.54,36.291Zm4.73,5.374-0.83,1.635a0.109,0.109,0,0,1-.09.051h-2.28V43.98a0.062,0.062,0,0,1-.05.076h-2.97a0.087,0.087,0,0,1-.07-0.076V43.351h-3.15c-0.03,0-.04-0.017-0.03-0.051l0.83-1.635a0.139,0.139,0,0,1,.1-0.075h2.25V41.02a0.061,0.061,0,0,1,.07-0.047h2.97c0.04,0,.05.013,0.05,0.047v0.57h3.17C1296.28,41.59,1296.29,41.63,1296.27,41.665Z" transform="translate(-1277 -28)"/>
</svg>
